<mxfile host="app.diagrams.net" modified="2022-04-06T12:54:21.613Z" agent="5.0 (Windows NT 10.0; Win64; x64) AppleWebKit/537.36 (KHTML, like Gecko) Chrome/100.0.4896.60 Safari/537.36 Edg/100.0.1185.29" etag="tm6XiPzoKENdivHc3yWD" version="17.4.0" type="github">
  <diagram id="PEiKn8RIHNlJ393pOIeJ" name="第 1 页">
    <mxGraphModel dx="886" dy="501" grid="1" gridSize="10" guides="1" tooltips="1" connect="1" arrows="1" fold="1" page="1" pageScale="1" pageWidth="827" pageHeight="1169" math="0" shadow="0">
      <root>
        <mxCell id="0" />
        <mxCell id="1" parent="0" />
        <mxCell id="R_mLtGOD0blBDKkHsr95-13" value="&lt;br&gt;服务器&amp;nbsp;&lt;br&gt;&amp;nbsp;&amp;nbsp;" style="rounded=1;whiteSpace=wrap;html=1;align=right;fillColor=#d5e8d4;strokeColor=#82b366;dashed=1;" vertex="1" parent="1">
          <mxGeometry x="330" y="215.63" width="160" height="58.75" as="geometry" />
        </mxCell>
        <mxCell id="R_mLtGOD0blBDKkHsr95-1" value="微控制器（STM32）" style="rounded=0;whiteSpace=wrap;html=1;fillColor=#dae8fc;strokeColor=#6c8ebf;dashed=1;" vertex="1" parent="1">
          <mxGeometry x="144" y="320" width="140" height="40" as="geometry" />
        </mxCell>
        <mxCell id="R_mLtGOD0blBDKkHsr95-14" style="edgeStyle=orthogonalEdgeStyle;rounded=0;orthogonalLoop=1;jettySize=auto;html=1;entryX=0;entryY=0.5;entryDx=0;entryDy=0;" edge="1" parent="1" source="R_mLtGOD0blBDKkHsr95-2" target="R_mLtGOD0blBDKkHsr95-1">
          <mxGeometry relative="1" as="geometry">
            <Array as="points">
              <mxPoint x="90" y="160" />
              <mxPoint x="90" y="340" />
            </Array>
          </mxGeometry>
        </mxCell>
        <mxCell id="R_mLtGOD0blBDKkHsr95-2" value="上位机（Android）&lt;br&gt;&amp;nbsp;&amp;nbsp;&lt;br&gt;&amp;nbsp;&amp;nbsp;" style="rounded=0;whiteSpace=wrap;html=1;fillColor=#dae8fc;strokeColor=#6c8ebf;dashed=1;" vertex="1" parent="1">
          <mxGeometry x="144" y="120" width="148" height="80" as="geometry" />
        </mxCell>
        <mxCell id="R_mLtGOD0blBDKkHsr95-4" value="远程通信" style="text;html=1;strokeColor=none;fillColor=none;align=center;verticalAlign=middle;whiteSpace=wrap;rounded=0;" vertex="1" parent="1">
          <mxGeometry x="262" y="235" width="60" height="30" as="geometry" />
        </mxCell>
        <mxCell id="R_mLtGOD0blBDKkHsr95-5" value="MQTT Broker" style="rounded=1;whiteSpace=wrap;html=1;fillColor=#fff2cc;strokeColor=#d6b656;dashed=1;" vertex="1" parent="1">
          <mxGeometry x="340" y="225" width="100" height="40" as="geometry" />
        </mxCell>
        <mxCell id="R_mLtGOD0blBDKkHsr95-9" style="edgeStyle=orthogonalEdgeStyle;rounded=0;orthogonalLoop=1;jettySize=auto;html=1;exitX=1;exitY=0.5;exitDx=0;exitDy=0;entryX=0.5;entryY=0;entryDx=0;entryDy=0;" edge="1" parent="1" source="R_mLtGOD0blBDKkHsr95-7" target="R_mLtGOD0blBDKkHsr95-5">
          <mxGeometry relative="1" as="geometry" />
        </mxCell>
        <mxCell id="R_mLtGOD0blBDKkHsr95-7" value="MQTT 客户端" style="rounded=1;whiteSpace=wrap;html=1;dashed=1;fillColor=#fff2cc;strokeColor=#d6b656;" vertex="1" parent="1">
          <mxGeometry x="166" y="160" width="96" height="30" as="geometry" />
        </mxCell>
        <mxCell id="R_mLtGOD0blBDKkHsr95-10" style="edgeStyle=orthogonalEdgeStyle;rounded=0;orthogonalLoop=1;jettySize=auto;html=1;entryX=0.5;entryY=1;entryDx=0;entryDy=0;" edge="1" parent="1" source="R_mLtGOD0blBDKkHsr95-8" target="R_mLtGOD0blBDKkHsr95-5">
          <mxGeometry relative="1" as="geometry" />
        </mxCell>
        <mxCell id="R_mLtGOD0blBDKkHsr95-11" style="edgeStyle=orthogonalEdgeStyle;rounded=0;orthogonalLoop=1;jettySize=auto;html=1;" edge="1" parent="1" source="R_mLtGOD0blBDKkHsr95-8" target="R_mLtGOD0blBDKkHsr95-1">
          <mxGeometry relative="1" as="geometry" />
        </mxCell>
        <mxCell id="R_mLtGOD0blBDKkHsr95-8" value="MQTT客户端&lt;br&gt;（Fibocom L610）" style="rounded=1;whiteSpace=wrap;html=1;dashed=1;fillColor=#fff2cc;strokeColor=#d6b656;" vertex="1" parent="1">
          <mxGeometry x="330" y="320" width="120" height="40" as="geometry" />
        </mxCell>
        <mxCell id="R_mLtGOD0blBDKkHsr95-12" value="WiFi" style="text;html=1;strokeColor=none;fillColor=none;align=center;verticalAlign=middle;whiteSpace=wrap;rounded=0;" vertex="1" parent="1">
          <mxGeometry x="320" y="145" width="60" height="30" as="geometry" />
        </mxCell>
        <mxCell id="R_mLtGOD0blBDKkHsr95-15" value="&lt;p&gt;COM Port&lt;/p&gt;" style="text;html=1;strokeColor=none;fillColor=none;align=center;verticalAlign=middle;whiteSpace=wrap;rounded=0;" vertex="1" parent="1">
          <mxGeometry x="90" y="235" width="60" height="30" as="geometry" />
        </mxCell>
      </root>
    </mxGraphModel>
  </diagram>
</mxfile>
